<?xml version="1.0" standalone="no"?>
<!DOCTYPE svg PUBLIC "-//W3C//DTD SVG 20010904//EN"
 "http://www.w3.org/TR/2001/REC-SVG-20010904/DTD/svg10.dtd">
<svg version="1.0" xmlns="http://www.w3.org/2000/svg"
 width="200.000000pt" height="200.000000pt" viewBox="0 0 200.000000 200.000000"
 preserveAspectRatio="xMidYMid meet">

<g transform="translate(0.000000,200.000000) scale(0.100000,-0.100000)"
fill="#000000" stroke="none">
<path d="M335 1979 c-158 -65 -288 -220 -324 -387 -7 -35 -11 -232 -11 -590 0
-590 0 -594 61 -714 41 -82 145 -186 227 -227 120 -61 124 -61 714 -61 358 0
555 4 590 11 169 36 324 167 387 328 21 52 21 63 19 679 l-3 627 -26 55 c-56
118 -151 213 -269 269 l-55 26 -630 2 c-612 2 -631 2 -680 -18z m275 -828 c0
-326 6 -371 57 -430 49 -58 104 -81 191 -81 109 0 180 39 225 124 21 39 22 53
25 359 l3 317 35 0 34 0 0 -318 c0 -359 -3 -379 -70 -455 -25 -28 -62 -54
-102 -73 -54 -24 -76 -28 -148 -28 -72 0 -94 4 -148 28 -70 32 -124 85 -156
155 -20 43 -21 64 -24 354 -2 170 -1 315 2 323 3 8 19 14 41 14 l35 0 0 -289z
m880 -141 l0 -430 -40 0 -40 0 0 423 c0 233 3 427 7 430 3 4 21 7 40 7 l33 0
0 -430z"/>
</g>
</svg>
